<svg width="512" height="512" viewBox="0 0 512 512" fill="none" xmlns="http://www.w3.org/2000/svg">
<g clip-path="url(#clip0)">
<path d="M475.074 0H36.9258C16.5312 0 0 16.5312 0 36.9258V475.074C0 495.469 16.5312 512 36.9258 512H273.5V314H207V236.5H273.5V179.465C273.5 113.324 313.879 77.3242 372.879 77.3242C401.137 77.3242 425.422 79.4297 432.5 80.3711V149.5H391.816C359.715 149.5 353.5 164.754 353.5 187.141V236.5H430.25L420.25 314H353.5V512H475.074C495.469 512 512 495.469 512 475.074V36.9258C512 16.5312 495.469 0 475.074 0V0Z" fill="white"/>
</g>
<defs>
<clipPath id="clip0">
<rect width="512" height="512" fill="white"/>
</clipPath>
</defs>
</svg>
