<svg width="512" height="512" viewBox="0 0 512 512" fill="none" xmlns="http://www.w3.org/2000/svg">
<path d="M376 91H136C111.188 91 91 111.188 91 136V376C91 400.812 111.188 421 136 421H376C400.812 421 421 400.812 421 376V136C421 111.188 400.812 91 376 91ZM256 361C198.109 361 151 313.891 151 256C151 198.109 198.109 151 256 151C313.891 151 361 198.109 361 256C361 313.891 313.891 361 256 361ZM361 181C344.461 181 331 167.539 331 151C331 134.461 344.461 121 361 121C377.539 121 391 134.461 391 151C391 167.539 377.539 181 361 181Z" fill="#F1F1F1"/>
<path d="M256 181C214.648 181 181 214.648 181 256C181 297.352 214.648 331 256 331C297.352 331 331 297.352 331 256C331 214.648 297.352 181 256 181Z" fill="#F1F1F1"/>
<path d="M436 0H76C34.6484 0 0 34.6484 0 76V436C0 477.352 34.6484 512 76 512H436C477.352 512 512 477.352 512 436V76C512 34.6484 477.352 0 436 0ZM451 376C451 417.352 417.352 451 376 451H136C94.6484 451 61 417.352 61 376V136C61 94.6484 94.6484 61 136 61H376C417.352 61 451 94.6484 451 136V376Z" fill="#F1F1F1"/>
</svg>
